<svg width="362" height="237.99999999999997" xmlns="http://www.w3.org/2000/svg">
 <metadata id="metadata8">image/svg+xml</metadata>

 <g>
  <title>background</title>
  <rect fill="none" id="canvas_background" height="240" width="364" y="-1" x="-1"/>
 </g>
 <g>
  <title>Layer 1</title>
  <g id="svg_1">
   <path fill="#254aa5" fill-rule="nonzero" d="m1,237.337507l354.501255,0l0,-236.337504l-354.501255,0l0,236.337504z" id="path16"/>
   <path fill="#fff200" fill-rule="nonzero" d="m170.696253,52.493755l7.48,-5.45875l7.48125,5.45875l-2.84625,-8.82875l7.5975,-5.45875l-9.36625,0l-2.86625,-8.935l-2.865,8.945l-9.36,-0.01l7.59125,5.45875l-2.84625,8.82875" id="path18"/>
   <path fill="#fff200" fill-rule="nonzero" d="m131.985002,62.893755l7.48125,-5.45875l7.47625,5.45875l-2.8425,-8.8275l7.5925,-5.45875l-9.365,0l-2.86625,-8.94625l-2.86625,8.955l-9.36,-0.00875l7.5925,5.45875l-2.8425,8.8275" id="path20"/>
   <path fill="#fff200" fill-rule="nonzero" d="m111.141252,68.050005l-2.86625,8.955l-9.36,-0.01l7.5925,5.46l-2.84625,8.8275l7.48,-5.45875l7.48,5.45875l-2.84625,-8.8275l7.5925,-5.46l-9.36,0l-2.86625,-8.945" id="path22"/>
   <path fill="#fff200" fill-rule="nonzero" d="m100.750002,124.486256l7.47625,5.45875l-2.8425,-8.82875l7.59375,-5.45875l-9.36125,0l-2.86625,-8.945l-2.86625,8.965l-9.365,-0.02l7.5975,5.45875l-2.84625,8.82875l7.48,-5.45875" id="path24"/>
   <path fill="#fff200" fill-rule="nonzero" d="m114.007502,154.437506l-2.86625,-8.94625l-2.86625,8.955l-9.36,-0.00875l7.5925,5.45875l-2.84625,8.8275l7.48,-5.46875l7.48,5.46875l-2.84625,-8.8275l7.5925,-5.45875l-9.36,0" id="path26"/>
   <path fill="#fff200" fill-rule="nonzero" d="m142.386252,182.816256l-2.86625,-8.93625l-2.86125,8.94625l-9.36625,-0.01l7.59375,5.45875l-2.84125,8.8275l7.48,-5.45875l7.475,5.45875l-2.84125,-8.8275l7.5925,-5.45875l-9.365,0" id="path28"/>
   <path fill="#fff200" fill-rule="nonzero" d="m181.047503,193.098757l-2.865,-8.945l-2.86125,8.955l-9.365,-0.01l7.59125,5.45875l-2.84125,8.82875l7.48125,-5.45875l7.475,5.45875l-2.84625,-8.82875l7.5975,-5.45875l-9.36625,0" id="path30"/>
   <path fill="#fff200" fill-rule="nonzero" d="m219.710003,182.816256l-2.86125,-8.93625l-2.87125,8.94625l-9.355,-0.01l7.5875,5.45875l-2.84125,8.8275l7.48,-5.45875l7.48,5.45875l-2.85125,-8.8275l7.59875,-5.45875l-9.36625,0" id="path32"/>
   <path fill="#fff200" fill-rule="nonzero" d="m248.098754,154.437506l-2.87125,-8.94625l-2.87,8.955l-9.35625,-0.00875l7.5975,5.45875l-2.85125,8.8275l7.48,-5.46875l7.48,5.46875l-2.85,-8.8275l7.59625,-5.45875l-9.355,0" id="path34"/>
   <path fill="#fff200" fill-rule="nonzero" d="m267.737504,115.550005l-9.365,0l-2.87125,-8.945l-2.86125,8.955l-9.365,-0.01l7.5975,5.45875l-2.84125,8.82875l7.47,-5.46875l7.48125,5.46875l-2.8425,-8.82875l7.5975,-5.45875" id="path36"/>
   <path fill="#fff200" fill-rule="nonzero" d="m237.747504,91.165005l7.48,-5.45875l7.48,5.45875l-2.85,-8.8275l7.59625,-5.44875l-9.355,0l-2.87125,-8.94625l-2.87,8.955l-9.35625,-0.00875l7.5975,5.44875l-2.85125,8.8275" id="path38"/>
   <path fill="#fff200" fill-rule="nonzero" d="m216.956253,39.671254l-2.86125,8.955l-9.365,-0.01875l7.5875,5.46875l-2.84125,8.8275l7.49,-5.46875l7.47125,5.46875l-2.8425,-8.8275l7.5975,-5.46875l-9.375,0l-2.86125,-8.93625" id="path40"/>
  </g>
 </g>
</svg>