<?xml version="1.0" encoding="UTF-8" standalone="no"?>
<svg
   xmlns:dc="http://purl.org/dc/elements/1.1/"
   xmlns:cc="http://creativecommons.org/ns#"
   xmlns:rdf="http://www.w3.org/1999/02/22-rdf-syntax-ns#"
   xmlns:svg="http://www.w3.org/2000/svg"
   xmlns="http://www.w3.org/2000/svg"
   viewBox="0 0 765 990"
   height="990"
   width="765"
   xml:space="preserve"
   version="1.1"
   id="svg2"><metadata
     id="metadata8"><rdf:RDF><cc:Work
         rdf:about=""><dc:format>image/svg+xml</dc:format><dc:type
           rdf:resource="http://purl.org/dc/dcmitype/StillImage" /></cc:Work></rdf:RDF></metadata><defs
     id="defs6" /><g
     transform="matrix(1.25,0,0,-1.25,0,990)"
     id="g10"><g
       transform="scale(0.1,0.1)"
       id="g12"><path
         id="path14"
         style="fill:#ffffff;fill-opacity:1;fill-rule:nonzero;stroke:none"
         d="m 1488.51,3102.15 2949.45,0 0,2003.44 -2949.45,0 0,-2003.44 z" /><path
         id="path16"
         style="fill:#254aa5;fill-opacity:1;fill-rule:nonzero;stroke:none"
         d="m 1545.23,3159.96 2836.01,0 0,1890.7 -2836.01,0 0,-1890.7 z" /><path
         id="path18"
         style="fill:#fff200;fill-opacity:1;fill-rule:nonzero;stroke:none"
         d="m 2902.8,4638.71 59.84,43.67 59.85,-43.67 -22.77,70.63 60.78,43.67 -74.93,0 -22.93,71.48 -22.92,-71.56 -74.88,0.08 60.73,-43.67 -22.77,-70.63" /><path
         id="path20"
         style="fill:#fff200;fill-opacity:1;fill-rule:nonzero;stroke:none"
         d="m 2593.11,4555.51 59.85,43.67 59.81,-43.67 -22.74,70.62 60.74,43.67 -74.92,0 -22.93,71.57 -22.93,-71.64 -74.88,0.07 60.74,-43.67 -22.74,-70.62" /><path
         id="path22"
         style="fill:#fff200;fill-opacity:1;fill-rule:nonzero;stroke:none"
         d="m 2426.36,4514.26 -22.93,-71.64 -74.88,0.08 60.74,-43.68 -22.77,-70.62 59.84,43.67 59.84,-43.67 -22.77,70.62 60.74,43.68 -74.88,0 -22.93,71.56" /><path
         id="path24"
         style="fill:#fff200;fill-opacity:1;fill-rule:nonzero;stroke:none"
         d="m 2343.23,4062.77 59.81,-43.67 -22.74,70.63 60.75,43.67 -74.89,0 -22.93,71.56 -22.93,-71.72 -74.92,0.16 60.78,-43.67 -22.77,-70.63 59.84,43.67" /><path
         id="path26"
         style="fill:#fff200;fill-opacity:1;fill-rule:nonzero;stroke:none"
         d="m 2449.29,3823.16 -22.93,71.57 -22.93,-71.64 -74.88,0.07 60.74,-43.67 -22.77,-70.62 59.84,43.75 59.84,-43.75 -22.77,70.62 60.74,43.67 -74.88,0" /><path
         id="path28"
         style="fill:#fff200;fill-opacity:1;fill-rule:nonzero;stroke:none"
         d="m 2676.32,3596.13 -22.93,71.49 -22.89,-71.57 -74.93,0.08 60.75,-43.67 -22.73,-70.62 59.84,43.67 59.8,-43.67 -22.73,70.62 60.74,43.67 -74.92,0" /><path
         id="path30"
         style="fill:#fff200;fill-opacity:1;fill-rule:nonzero;stroke:none"
         d="m 2985.61,3513.87 -22.92,71.56 -22.89,-71.64 -74.92,0.08 60.73,-43.67 -22.73,-70.63 59.85,43.67 59.8,-43.67 -22.77,70.63 60.78,43.67 -74.93,0" /><path
         id="path32"
         style="fill:#fff200;fill-opacity:1;fill-rule:nonzero;stroke:none"
         d="m 3294.91,3596.13 -22.89,71.49 -22.97,-71.57 -74.84,0.08 60.7,-43.67 -22.73,-70.62 59.84,43.67 59.84,-43.67 -22.81,70.62 60.79,43.67 -74.93,0" /><path
         id="path34"
         style="fill:#fff200;fill-opacity:1;fill-rule:nonzero;stroke:none"
         d="m 3522.02,3823.16 -22.97,71.57 -22.96,-71.64 -74.85,0.07 60.78,-43.67 -22.81,-70.62 59.84,43.75 59.84,-43.75 -22.8,70.62 60.77,43.67 -74.84,0" /><path
         id="path36"
         style="fill:#fff200;fill-opacity:1;fill-rule:nonzero;stroke:none"
         d="m 3679.13,4134.26 -74.92,0 -22.97,71.56 -22.89,-71.64 -74.92,0.08 60.78,-43.67 -22.73,-70.63 59.76,43.75 59.85,-43.75 -22.74,70.63 60.78,43.67" /><path
         id="path38"
         style="fill:#fff200;fill-opacity:1;fill-rule:nonzero;stroke:none"
         d="m 3439.21,4329.34 59.84,43.67 59.84,-43.67 -22.8,70.62 60.77,43.59 -74.84,0 -22.97,71.57 -22.96,-71.64 -74.85,0.07 60.78,-43.59 -22.81,-70.62" /><path
         id="path40"
         style="fill:#fff200;fill-opacity:1;fill-rule:nonzero;stroke:none"
         d="m 3272.88,4741.29 -22.89,-71.64 -74.92,0.15 60.7,-43.75 -22.73,-70.62 59.92,43.75 59.77,-43.75 -22.74,70.62 60.78,43.75 -75,0 -22.89,71.49" /></g></g></svg>